<?xml version="1.0" standalone="no"?>
<!DOCTYPE svg PUBLIC "-//W3C//DTD SVG 20010904//EN"
 "http://www.w3.org/TR/2001/REC-SVG-20010904/DTD/svg10.dtd">
<svg version="1.0" xmlns="http://www.w3.org/2000/svg"
 width="231.000000pt" height="231.000000pt" viewBox="0 0 231.000000 231.000000"
 preserveAspectRatio="xMidYMid meet">
<metadata>
Created by potrace 1.11, written by Peter Selinger 2001-2013
</metadata>
<g transform="translate(0.000000,231.000000) scale(0.100000,-0.100000)"
fill="#000000" stroke="none">
<path d="M506 2188 c-75 -119 -116 -233 -125 -353 l-6 -80 -27 45 c-42 71 -61
152 -56 234 l5 71 -27 -60 c-53 -116 -80 -278 -80 -474 l0 -115 -50 49 c-28
28 -64 77 -80 109 -32 64 -36 59 -20 -24 15 -80 53 -154 110 -214 47 -50 51
-58 65 -136 8 -46 17 -91 20 -101 9 -26 -4 -24 -56 9 -63 40 -115 88 -140 128
-34 55 -34 32 0 -38 38 -81 95 -145 173 -198 36 -23 75 -61 94 -88 44 -66 126
-140 182 -164 63 -28 149 -28 198 2 l37 21 62 -64 c34 -35 68 -74 75 -87 11
-21 11 -22 -6 -16 -54 21 -270 67 -363 78 l-106 12 -78 72 c-129 119 -238 163
-287 114 -75 -75 79 -204 311 -260 79 -18 81 -20 147 -91 37 -39 68 -75 70
-79 2 -4 -23 -17 -55 -27 l-58 -20 -63 42 c-82 55 -139 72 -179 53 -23 -11
-29 -20 -31 -55 -3 -34 2 -48 21 -67 34 -34 116 -56 207 -56 63 0 80 -3 94
-19 33 -37 116 -65 193 -66 39 -1 77 -6 85 -12 34 -27 105 -55 154 -60 46 -5
54 -9 65 -34 14 -36 71 -86 104 -95 14 -3 40 -3 58 0 38 7 113 66 122 96 5 17
15 20 63 20 41 0 73 8 112 27 46 22 70 26 145 27 80 1 96 4 140 30 46 26 59
29 155 30 125 1 172 20 203 80 55 105 -84 124 -225 31 l-38 -25 -53 21 c-28
12 -55 25 -60 29 -4 3 28 38 71 77 77 70 79 71 156 83 129 19 219 56 285 116
53 48 68 86 47 119 -38 58 -167 14 -313 -105 l-73 -60 -84 0 c-84 0 -273 -21
-351 -40 -22 -5 -41 -7 -43 -5 -7 6 105 120 132 134 21 12 31 10 80 -14 47
-23 65 -27 106 -22 95 11 190 70 261 159 26 34 62 64 98 83 72 38 161 127 195
193 14 28 26 53 26 56 0 2 -26 -21 -58 -53 -51 -50 -166 -121 -177 -109 -2 2
7 39 20 81 14 43 25 86 25 96 0 10 20 35 45 56 60 49 111 125 135 204 28 90
26 116 -6 53 -22 -44 -140 -170 -150 -160 -2 2 2 49 7 103 19 172 -8 406 -58
523 l-18 42 0 -82 c-1 -58 -7 -100 -21 -138 -23 -61 -72 -145 -81 -137 -3 3
-11 43 -19 89 -30 173 -89 335 -156 424 l-23 31 0 -126 c0 -107 -4 -137 -24
-200 -31 -94 -93 -187 -214 -320 -126 -137 -151 -189 -151 -301 0 -84 21 -178
47 -214 10 -13 12 2 12 82 0 96 1 101 42 183 23 46 63 109 88 139 72 86 124
165 165 254 53 113 73 194 74 308 1 82 3 93 13 75 37 -64 113 -365 113 -443 0
-20 -36 -61 -153 -177 -215 -214 -261 -302 -223 -422 15 -50 15 -54 -5 -99
-13 -31 -20 -63 -18 -96 3 -47 1 -50 -63 -118 -36 -38 -74 -88 -84 -110 -15
-31 -30 -46 -69 -64 -27 -13 -62 -34 -77 -47 l-29 -23 -24 26 c-14 15 -25 28
-25 30 0 2 30 21 66 42 127 74 188 146 200 237 11 80 -13 123 -153 270 -133
140 -165 186 -147 215 31 48 86 65 169 50 22 -3 30 19 21 57 -5 18 -17 27 -49
36 -23 7 -49 19 -58 26 -65 55 -223 -4 -247 -91 -12 -41 -7 -75 34 -225 44
-163 45 -202 1 -246 -44 -44 -99 -55 -135 -28 -47 35 -48 68 -8 171 92 239 73
326 -123 562 -121 145 -170 223 -195 309 -19 66 -20 192 -2 244 8 20 12 37 10
37 -2 0 -19 -24 -38 -52z m-32 -145 c-17 -133 79 -333 276 -578 128 -159 141
-210 91 -342 -42 -107 -47 -140 -28 -186 23 -53 69 -79 133 -74 64 4 105 33
134 93 31 62 24 109 -36 235 -56 120 -69 200 -39 245 21 32 88 63 137 64 52 0
58 -18 8 -26 -43 -7 -58 -20 -43 -35 6 -6 23 -4 46 6 62 26 147 15 147 -18 0
-10 -16 -12 -57 -10 -68 5 -120 -18 -142 -62 -20 -40 -2 -87 73 -197 98 -143
119 -190 124 -279 4 -67 1 -81 -23 -129 -15 -30 -52 -78 -83 -107 -52 -50 -56
-53 -76 -38 -36 26 -98 57 -103 51 -3 -3 18 -19 46 -36 28 -18 51 -35 50 -38
0 -4 -13 -18 -30 -30 l-29 -24 -36 32 c-20 17 -52 39 -71 48 -25 12 -41 31
-63 77 -16 33 -51 85 -78 115 -48 54 -49 57 -45 107 4 33 -1 68 -11 100 -15
45 -15 53 -1 86 8 20 15 63 15 96 0 98 -52 186 -214 366 l-136 150 0 65 c0 37
5 93 11 126 10 58 50 194 56 194 2 0 1 -21 -3 -47z m-146 -359 c39 -85 41 -95
45 -211 3 -68 2 -123 -2 -123 -3 0 -38 20 -76 43 l-70 44 -3 84 c-3 80 11 301
25 383 6 38 7 36 23 -45 10 -47 36 -126 58 -175z m1787 -64 c0 -113 -3 -217
-7 -231 -6 -20 -26 -35 -83 -64 -42 -20 -79 -35 -82 -31 -3 3 -1 31 5 63 6 32
14 90 18 128 4 40 14 81 24 95 53 77 98 206 101 290 l1 35 11 -40 c7 -23 11
-127 12 -245z m-1479 -312 c56 -71 83 -132 84 -180 0 -21 -1 -38 -3 -38 -1 0
-30 26 -64 58 -34 31 -102 84 -151 117 -101 68 -95 55 -107 225 l-6 85 101
-105 c56 -58 122 -131 146 -162z m1289 56 l-17 -93 -71 -40 c-94 -51 -173
-105 -219 -149 l-38 -36 0 35 c0 80 68 168 265 345 85 77 90 80 93 56 2 -14
-4 -67 -13 -118z m-1552 -145 c20 -9 38 -32 58 -75 53 -111 132 -157 223 -130
45 14 47 14 62 -9 19 -29 29 -88 18 -108 -8 -12 -25 -5 -101 39 -86 49 -331
164 -352 164 -8 0 -26 68 -47 179 l-7 33 59 -40 c32 -22 72 -46 87 -53z m1696
-50 c-38 -137 -29 -128 -178 -178 -73 -24 -177 -66 -231 -93 -55 -26 -101 -48
-104 -48 -11 0 -6 61 8 94 19 46 29 49 83 30 88 -31 173 13 228 119 26 49 36
58 114 99 47 25 89 46 93 47 4 0 -2 -31 -13 -70z m-1546 -25 c39 -20 92 -50
116 -67 38 -26 41 -31 26 -40 -9 -5 -42 -7 -71 -5 -61 5 -101 35 -135 100 -31
60 -32 60 64 12z m1332 -44 c-47 -90 -118 -131 -195 -110 -22 6 -40 14 -40 19
0 14 206 116 243 120 4 1 1 -12 -8 -29z m-1335 -203 c85 -38 159 -73 163 -77
5 -4 -8 -13 -28 -20 -52 -17 -128 -6 -183 26 -47 28 -125 101 -143 136 -10 18
-8 19 13 13 12 -4 93 -39 178 -78z m-342 -16 c26 -17 72 -55 102 -87 l55 -56
-35 7 c-75 15 -193 59 -231 87 -46 33 -54 73 -17 87 30 11 69 -1 126 -38z
m1746 -20 c-34 -32 -83 -68 -110 -81 -64 -32 -150 -38 -195 -15 l-34 18 25 10
c93 37 348 126 360 126 8 0 -12 -26 -46 -58z m326 -41 c14 -26 -15 -59 -78
-87 -62 -27 -163 -53 -207 -52 l-30 0 40 35 c129 112 247 157 275 104z m-1591
-200 c234 -27 231 -25 231 -92 l0 -38 -47 8 c-61 9 -155 9 -214 0 l-45 -7 -68
74 c-49 54 -62 75 -49 75 10 0 97 -9 192 -20z m1086 -100 l-70 -70 -75 16
c-47 10 -104 14 -154 11 l-78 -4 5 44 c2 24 7 46 10 49 7 8 196 21 322 23
l110 1 -70 -70z m-733 3 c17 -15 16 -22 -11 -62 -7 -11 -16 -10 -50 5 -40 17
-41 19 -41 66 l0 48 43 -21 c23 -12 50 -28 59 -36z m152 8 l27 -28 -20 -34
c-22 -35 -29 -85 -11 -74 6 3 10 14 10 24 0 11 8 29 19 42 l18 23 18 -28 c12
-19 15 -32 9 -41 -40 -54 -49 -73 -49 -105 0 -25 9 -49 27 -73 l27 -35 -20
-26 c-24 -31 -69 -56 -99 -56 -32 0 -76 26 -100 60 l-21 30 30 37 c41 50 43
108 5 152 -25 30 -25 32 -9 57 22 33 37 27 55 -24 8 -23 18 -42 23 -42 11 0
-1 56 -20 93 -13 26 -12 29 14 52 15 13 31 25 34 25 3 0 18 -13 33 -29z m186
-16 c0 -42 -2 -45 -42 -63 l-43 -19 -18 35 c-10 18 -17 35 -15 37 4 4 111 55
116 55 1 0 2 -20 2 -45z m-1052 -10 c30 -14 68 -35 84 -47 28 -20 29 -22 12
-29 -10 -4 -46 -8 -79 -8 -79 -1 -129 23 -133 63 -6 52 34 59 116 21z m1772
-60 c32 -38 -37 -85 -126 -85 -34 0 -68 6 -78 13 -17 13 -16 15 17 36 77 47
164 64 187 36z m-1201 -17 c-17 -32 -100 -118 -113 -118 -19 1 -100 80 -90 89
12 10 157 47 197 50 15 1 16 -2 6 -21z m100 -2 c6 -4 4 -24 -6 -51 -8 -25 -13
-67 -11 -95 l3 -50 -40 0 c-35 0 -145 41 -145 54 0 3 22 26 48 50 27 25 57 61
67 80 16 30 21 33 46 26 16 -5 33 -11 38 -14z m409 -50 c17 -29 47 -67 67 -83
29 -24 33 -32 22 -41 -24 -20 -98 -42 -141 -42 l-41 0 0 102 c1 109 1 108 57
117 3 1 20 -23 36 -53z m135 17 c42 -13 77 -28 77 -33 0 -10 -85 -80 -97 -80
-21 0 -113 112 -113 137 0 16 22 12 133 -24z m-473 -65 c0 -34 -36 -91 -52
-82 -12 7 -6 123 7 145 12 19 45 -27 45 -63z m-365 17 l50 -45 -61 0 c-45 0
-73 6 -112 26 -29 14 -52 29 -52 33 0 7 75 26 115 29 6 1 33 -19 60 -43z m585
-29 c0 -82 -9 -99 -34 -61 -20 31 -21 84 0 113 26 37 34 25 34 -52z m426 19
c31 -8 59 -17 61 -19 3 -3 -15 -15 -39 -27 -44 -23 -178 -40 -178 -23 0 10 81
83 92 84 4 0 33 -7 64 -15z"/>
</g>
</svg>
